<?xml version="1.0" encoding="UTF-8" standalone="no"?>
<svg width="48px" height="48px" viewBox="0 0 48 48" version="1.1" xmlns="http://www.w3.org/2000/svg" xmlns:xlink="http://www.w3.org/1999/xlink">
    <!-- Generator: Sketch 42 (36781) - http://www.bohemiancoding.com/sketch -->
    <title>Cheminee</title>
    <desc>Created with Sketch.</desc>
    <defs></defs>
    <g id="FORMULAIRES-SMARTPHONE-720-LARGER" stroke="none" stroke-width="1" fill="none" fill-rule="evenodd">
        <g id="Cheminee" fill-rule="nonzero" fill="#3A96D0">
            <g id="fire-copy" transform="translate(8.000000, 2.000000)">
                <path d="M15.8031056,37.5708075 C12.1546584,37.5708075 9.22360248,34.6807453 9.22360248,31.1347826 C9.22360248,27.8142857 11.3347826,25.4776398 14.9627329,24.7397516 C18.5906832,24.0018634 22.3416149,22.2596273 24.4322981,19.4515528 C25.231677,22.0956522 25.621118,24.8832298 25.621118,27.7322981 C25.621118,33.1434783 21.2347826,37.5708075 15.8031056,37.5708075 L15.8031056,37.5708075 Z M19.4720497,0 C19.4720497,0 20.9888199,5.43167702 20.9888199,9.83850932 C20.9888199,14.0608696 18.2217391,17.4838509 13.9993789,17.4838509 C9.75652174,17.4838509 6.55900621,14.0608696 6.55900621,9.83850932 L6.62049689,9.08012422 C2.48012422,13.9993789 0,20.373913 0,27.3223602 C1.82048993e-15,36.378458 7.34141777,43.7198758 16.3975155,43.7198758 C25.4536133,43.7198758 32.7950311,36.378458 32.7950311,27.3223602 C32.7950311,16.2540373 27.4863354,6.41552795 19.4720497,0 Z" id="Shape"></path>
            </g>
        </g>
    </g>
</svg>