<?xml version="1.0" encoding="UTF-8" standalone="no"?>
<svg width="48px" height="48px" viewBox="0 0 48 48" version="1.1" xmlns="http://www.w3.org/2000/svg" xmlns:xlink="http://www.w3.org/1999/xlink">
    <!-- Generator: Sketch 42 (36781) - http://www.bohemiancoding.com/sketch -->
    <title>dependances</title>
    <desc>Created with Sketch.</desc>
    <defs></defs>
    <g id="FORMULAIRES-SMARTPHONE-720-LARGER" stroke="none" stroke-width="1" fill="none" fill-rule="evenodd">
        <g id="dependances" fill-rule="nonzero" fill="#3996D0">
            <g id="garage-copy" transform="translate(3.000000, 2.000000)">
                <path d="M41.9348837,44 L35.944186,44 L35.944186,17.6 L5.99069767,17.6 L5.99069767,44 L0,44 L0,11.7333333 L20.9674419,0 L41.9348837,11.7333333 L41.9348837,44 L41.9348837,44 Z M8.98604651,20.5333333 L32.9488372,20.5333333 L32.9488372,26.4 L8.98604651,26.4 L8.98604651,20.5333333 L8.98604651,20.5333333 Z M8.98604651,29.3333333 L32.9488372,29.3333333 L32.9488372,35.2 L8.98604651,35.2 L8.98604651,29.3333333 L8.98604651,29.3333333 Z M32.9488372,38.1333333 L32.9488372,44 L8.98604651,44 L8.98604651,38.1333333 L32.9488372,38.1333333 Z" id="Shape"></path>
            </g>
        </g>
    </g>
</svg>