<?xml version="1.0" encoding="UTF-8" standalone="no"?>
<svg width="48px" height="48px" viewBox="0 0 48 48" version="1.1" xmlns="http://www.w3.org/2000/svg" xmlns:xlink="http://www.w3.org/1999/xlink">
    <!-- Generator: Sketch 42 (36781) - http://www.bohemiancoding.com/sketch -->
    <title>inhabitation</title>
    <desc>Created with Sketch.</desc>
    <defs>
        <rect id="path-1" x="-3.14415161e-13" y="0.32049948" width="44" height="19.2299688"></rect>
        <mask id="mask-2" maskContentUnits="userSpaceOnUse" maskUnits="objectBoundingBox" x="0" y="0" width="44" height="19.2299688" fill="white">
            <use xlink:href="#path-1"></use>
        </mask>
    </defs>
    <g id="FORMULAIRES-SMARTPHONE-720-LARGER" stroke="none" stroke-width="1" fill="none" fill-rule="evenodd">
        <g id="inhabitation">
            <g id="Group-2-Copy" transform="translate(24.300282, 24.770978) rotate(-15.000000) translate(-24.300282, -24.770978) translate(2.300282, 14.770978)">
                <use id="Rectangle-10" stroke="#3A96D0" mask="url(#mask-2)" stroke-width="6" xlink:href="#path-1"></use>
                <path d="M6.60424213,7.88175882 L6.60424213,9.54098462 L9.49452785,9.54098462 L9.49452785,10.6537588 L6.60424213,10.6537588 L6.60424213,13.3363395 L5.18481356,13.3363395 L5.18481356,6.77892011 L10.2659564,6.77892011 L10.2659564,7.88175882 L6.60424213,7.88175882 Z M16.5608136,12.2335008 L16.5608136,13.3363395 L11.325385,13.3363395 L11.325385,6.77892011 L16.4168136,6.77892011 L16.4168136,7.88175882 L12.7448136,7.88175882 L12.7448136,9.51117817 L15.6350993,9.51117817 L15.6350993,10.5643395 L12.7448136,10.5643395 L12.7448136,12.2335008 L16.5608136,12.2335008 Z M20.3562421,10.822662 L19.0808135,10.822662 L19.0808135,13.3363395 L17.6819564,13.3363395 L17.6819564,6.77892011 L20.6750993,6.77892011 C21.4499603,6.77892011 22.0550971,6.95610113 22.4905278,7.31046849 C22.9259586,7.66483586 23.1436707,8.16326098 23.1436707,8.80575882 C23.1436707,9.27604074 23.0236719,9.67014432 22.7836707,9.9880814 C22.5436695,10.3060185 22.2008158,10.5345323 21.7550993,10.6736298 L23.5448135,13.3363395 L21.9505278,13.3363395 L20.3562421,10.822662 Z M19.0808135,9.77943624 L20.4899564,9.77943624 C20.901387,9.77943624 21.2048126,9.70160906 21.4002421,9.54595236 C21.5956717,9.39029567 21.693385,9.15019055 21.693385,8.82562978 C21.693385,8.50106902 21.5956717,8.2609639 21.4002421,8.1053072 C21.2048126,7.94965051 20.901387,7.87182333 20.4899564,7.87182333 L19.0808135,7.87182333 L19.0808135,9.77943624 Z M31.9070993,13.3363395 L30.6316707,13.3363395 L30.6316707,9.91853301 L30.693385,8.00098462 L30.6728135,8.00098462 L28.7905278,13.3363395 L27.6282421,13.3363395 L25.7562421,8.00098462 L25.7356707,8.00098462 L25.8076707,9.91853301 L25.8076707,13.3363395 L24.5219564,13.3363395 L24.5219564,6.77892011 L26.5790993,6.77892011 L27.8030993,10.3556943 L28.2350993,11.8360814 L28.2556707,11.8360814 L28.6979564,10.3656298 L29.9116707,6.77892011 L31.9070993,6.77892011 L31.9070993,13.3363395 Z M36.453385,6.08343624 L35.3939564,6.08343624 L35.9699564,4.54343624 L37.3688135,4.54343624 L36.453385,6.08343624 Z M38.757385,12.2335008 L38.757385,13.3363395 L33.5219564,13.3363395 L33.5219564,6.77892011 L38.613385,6.77892011 L38.613385,7.88175882 L34.941385,7.88175882 L34.941385,9.51117817 L37.8316707,9.51117817 L37.8316707,10.5643395 L34.941385,10.5643395 L34.941385,12.2335008 L38.757385,12.2335008 Z" id="FERMÉ" fill="#3A96D0"></path>
            </g>
        </g>
    </g>
</svg>