<?xml version="1.0" encoding="UTF-8" standalone="no"?>
<svg width="48px" height="48px" viewBox="0 0 48 48" version="1.1" xmlns="http://www.w3.org/2000/svg" xmlns:xlink="http://www.w3.org/1999/xlink">
    <!-- Generator: Sketch 42 (36781) - http://www.bohemiancoding.com/sketch -->
    <title>No-Franchise</title>
    <desc>Created with Sketch.</desc>
    <defs>
        <rect id="path-1" x="0" y="1.47465438" width="44" height="19.9078341"></rect>
        <mask id="mask-2" maskContentUnits="userSpaceOnUse" maskUnits="objectBoundingBox" x="0" y="0" width="44" height="19.9078341" fill="white">
            <use xlink:href="#path-1"></use>
        </mask>
    </defs>
    <g id="FORMULAIRES-SMARTPHONE-720-LARGER" stroke="none" stroke-width="1" fill="none" fill-rule="evenodd">
        <g id="No-Franchise">
            <g id="Group-2" transform="translate(2.000000, 13.000000)">
                <use id="Rectangle-10" stroke="#3A96D0" mask="url(#mask-2)" stroke-width="6" xlink:href="#path-1"></use>
                <path d="M10.6678025,6.93203845 L10.6678025,16.0289877 L8.82084611,16.0289877 L8.82084611,9.24762554 C8.82084611,9.1006034 8.82544048,8.98574408 8.83462937,8.90304412 C8.50382956,9.20627728 8.14776566,9.46356216 7.76642699,9.67490649 C7.38508832,9.88625081 7.00145819,10.0286764 6.61552508,10.1021874 L6.36742646,8.50332969 C6.79011511,8.45738527 7.29779331,8.2667188 7.8904763,7.93132454 C8.48315929,7.59593029 8.89435566,7.26283826 9.12407775,6.93203845 L10.6678025,6.93203845 Z M13.2935128,14.9814602 C12.6824521,14.1912162 12.3769263,13.0242455 12.3769263,11.4805131 C12.3769263,9.93678064 12.6824521,8.76980993 13.2935128,7.97956594 C13.9045736,7.18932195 14.8119622,6.79420589 16.015706,6.79420589 C17.2194497,6.79420589 18.1268384,7.18932195 18.7378991,7.97956594 C19.3489599,8.76980993 19.6544857,9.93678064 19.6544857,11.4805131 C19.6544857,13.0242455 19.3489599,14.1912162 18.7378991,14.9814602 C18.1268384,15.7717042 17.2194497,16.1668203 16.015706,16.1668203 C14.8119622,16.1668203 13.9045736,15.7717042 13.2935128,14.9814602 Z M17.3251153,13.8650164 C17.6099707,13.350439 17.7523963,12.5556125 17.7523963,11.4805131 C17.7523963,10.4054137 17.6099707,9.6105872 17.3251153,9.09600972 C17.0402599,8.58143223 16.6037945,8.32414735 16.015706,8.32414735 C15.4276174,8.32414735 14.991152,8.58143223 14.7062966,9.09600972 C14.4214412,9.6105872 14.2790157,10.4054137 14.2790157,11.4805131 C14.2790157,12.5556125 14.4214412,13.350439 14.7062966,13.8650164 C14.991152,14.3795939 15.4276174,14.6368788 16.015706,14.6368788 C16.6037945,14.6368788 17.0402599,14.3795939 17.3251153,13.8650164 Z M21.8529151,14.9814602 C21.2418543,14.1912162 20.9363285,13.0242455 20.9363285,11.4805131 C20.9363285,9.93678064 21.2418543,8.76980993 21.8529151,7.97956594 C22.4639758,7.18932195 23.3713645,6.79420589 24.5751082,6.79420589 C25.778852,6.79420589 26.6862406,7.18932195 27.2973014,7.97956594 C27.9083621,8.76980993 28.2138879,9.93678064 28.2138879,11.4805131 C28.2138879,13.0242455 27.9083621,14.1912162 27.2973014,14.9814602 C26.6862406,15.7717042 25.778852,16.1668203 24.5751082,16.1668203 C23.3713645,16.1668203 22.4639758,15.7717042 21.8529151,14.9814602 Z M25.8845176,13.8650164 C26.169373,13.350439 26.3117985,12.5556125 26.3117985,11.4805131 C26.3117985,10.4054137 26.169373,9.6105872 25.8845176,9.09600972 C25.5996622,8.58143223 25.1631968,8.32414735 24.5751082,8.32414735 C23.9870197,8.32414735 23.5505542,8.58143223 23.2656989,9.09600972 C22.9808435,9.6105872 22.8384179,10.4054137 22.8384179,11.4805131 C22.8384179,12.5556125 22.9808435,13.350439 23.2656989,13.8650164 C23.5505542,14.3795939 23.9870197,14.6368788 24.5751082,14.6368788 C25.1631968,14.6368788 25.5996622,14.3795939 25.8845176,13.8650164 Z M38,13.6582676 C37.7794668,14.4577005 37.3498929,15.0756436 36.7112655,15.5121156 C36.0726381,15.9485876 35.3214581,16.1668203 34.4577031,16.1668203 C33.4285481,16.1668203 32.5739948,15.9026438 31.8940174,15.374283 C31.21404,14.8459222 30.7546027,14.0947423 30.5156917,13.1207206 L29.2751987,13.1207206 L29.2751987,12.1145429 L30.3640759,12.1145429 C30.3456982,11.9767096 30.3365094,11.7653685 30.3365094,11.4805131 L30.3365094,11.1497149 L29.2751987,11.1497149 L29.2751987,10.1435372 L30.4605587,10.1435372 C30.6627142,9.08681559 31.1083683,8.26442285 31.7975346,7.6763343 C32.4867009,7.08824575 33.3642261,6.79420589 34.4301366,6.79420589 C35.2847028,6.79420589 36.0220996,6.98257518 36.6423492,7.3593194 C37.2625989,7.73606363 37.682984,8.26441651 37.9035172,8.94439389 L36.442492,9.61977346 C36.3322254,9.1511404 36.1071011,8.79737369 35.7671125,8.55846271 C35.4271238,8.31955174 35.0228189,8.20009805 34.5541859,8.20009805 C33.9660973,8.20009805 33.4744994,8.36779266 33.0793774,8.70318691 C32.6842555,9.03858116 32.4085931,9.51869312 32.2523821,10.1435372 L35.5190138,10.1435372 L35.1882157,11.1497149 L32.1145495,11.1497149 C32.1053606,11.223226 32.1007662,11.3334909 32.1007662,11.4805131 C32.1007662,11.6275352 32.109955,11.8388764 32.1283328,12.1145429 L34.9539003,12.1145429 L34.6506687,13.1207206 L32.3212983,13.1207206 C32.4958871,13.6536758 32.7669551,14.0602778 33.1345105,14.3405388 C33.5020658,14.6207997 33.9569087,14.7609281 34.4990529,14.7609281 C34.9768748,14.7609281 35.3949627,14.6253941 35.7533292,14.3543221 C36.1116957,14.08325 36.3551974,13.6904311 36.4838418,13.1758536 L38,13.6582676 Z" id="100€" fill="#3A96D0"></path>
                <path d="M8.57627119,0.368663594 L31.1471465,22.6842337" id="Line" stroke="#3A96D0" stroke-width="2" stroke-linecap="square"></path>
                <path d="M11.559322,0.368663594 L34.1301973,22.6842337" id="Line-Copy" stroke="#FFFFFF" stroke-width="2" stroke-linecap="square"></path>
            </g>
        </g>
    </g>
</svg>