<?xml version="1.0" encoding="UTF-8" standalone="no"?>
<svg width="48px" height="48px" viewBox="0 0 48 48" version="1.1" xmlns="http://www.w3.org/2000/svg" xmlns:xlink="http://www.w3.org/1999/xlink">
    <!-- Generator: Sketch 42 (36781) - http://www.bohemiancoding.com/sketch -->
    <title>Sys-Protection</title>
    <desc>Created with Sketch.</desc>
    <defs></defs>
    <g id="FORMULAIRES-SMARTPHONE-720-LARGER" stroke="none" stroke-width="1" fill="none" fill-rule="evenodd">
        <g id="Sys-Protection" fill-rule="nonzero" fill="#3A96D0">
            <g id="remote-copy" transform="translate(9.000000, 2.000000)">
                <path d="M15.3043478,0 C9.48869565,0 4.22782609,2.35304348 0.420869565,6.16 L3.11826087,8.8573913 C6.23652174,5.73913043 10.5217391,3.82608696 15.3043478,3.82608696 C20.0869565,3.82608696 24.3721739,5.73913043 27.4713043,8.87652174 L30.1686957,6.17913043 C26.3808696,2.35304348 21.12,0 15.3043478,0 L15.3043478,0 Z M5.83478261,11.573913 L8.53217391,14.2713043 C10.2730435,12.5495652 12.6643478,11.4782609 15.3043478,11.4782609 C17.9443478,11.4782609 20.3356522,12.5495652 22.0765217,14.2713043 L24.773913,11.573913 C22.3443478,9.14434783 18.9965217,7.65217391 15.3043478,7.65217391 C11.6121739,7.65217391 8.26434783,9.14434783 5.83478261,11.573913 L5.83478261,11.573913 Z M15.3043478,28.6956522 C13.1912583,28.6956522 11.4782609,26.9826547 11.4782609,24.8695652 C11.4782609,22.7564757 13.1912583,21.0434783 15.3043478,21.0434783 C17.4174373,21.0434783 19.1304348,22.7564757 19.1304348,24.8695652 C19.1304348,26.9826547 17.4174373,28.6956522 15.3043478,28.6956522 L15.3043478,28.6956522 Z M21.0434783,17.2173913 L9.56521739,17.2173913 C8.50867265,17.2173913 7.65217391,18.07389 7.65217391,19.1304348 L7.65217391,42.0869565 C7.65217391,43.1435013 8.50867265,44 9.56521739,44 L21.0434783,44 C22.100023,44 22.9565217,43.1435013 22.9565217,42.0869565 L22.9565217,19.1304348 C22.9565217,18.07389 22.100023,17.2173913 21.0434783,17.2173913 Z" id="Shape"></path>
            </g>
        </g>
    </g>
</svg>