<?xml version="1.0" encoding="UTF-8" standalone="no"?>
<svg width="48px" height="48px" viewBox="0 0 48 48" version="1.1" xmlns="http://www.w3.org/2000/svg" xmlns:xlink="http://www.w3.org/1999/xlink">
    <!-- Generator: Sketch 42 (36781) - http://www.bohemiancoding.com/sketch -->
    <title>Valeur-neuf</title>
    <desc>Created with Sketch.</desc>
    <defs></defs>
    <g id="FORMULAIRES-SMARTPHONE-720-LARGER" stroke="none" stroke-width="1" fill="none" fill-rule="evenodd">
        <g id="Valeur-neuf" fill-rule="nonzero" fill="#3A96D0">
            <g id="sync(1)-copy" transform="translate(8.000000, 2.000000)">
                <path d="M16,34 C9.372583,34 4,28.627417 4,22 C4,20 4.5,18.06 5.4,16.4 L2.48,13.48 C0.92,15.94 0,18.86 0,22 C1.77635684e-15,30.836556 7.163444,38 16,38 L16,44 L24,36 L16,28 L16,34 Z M16,6 L16,0 L8,8 L16,16 L16,10 C22.627417,10 28,15.372583 28,22 C28,24 27.5,25.94 26.6,27.6 L29.52,30.52 C31.08,28.06 32,25.14 32,22 C32,13.163444 24.836556,6 16,6 Z" id="Shape"></path>
            </g>
        </g>
    </g>
</svg>